<?xml version="1.0" encoding="utf-8"?>
<!-- Generator: Adobe Illustrator 17.0.0, SVG Export Plug-In . SVG Version: 6.00 Build 0)  -->
<!DOCTYPE svg PUBLIC "-//W3C//DTD SVG 1.1//EN" "http://www.w3.org/Graphics/SVG/1.1/DTD/svg11.dtd">
<svg version="1.1" id="Capa_1" xmlns="http://www.w3.org/2000/svg" xmlns:xlink="http://www.w3.org/1999/xlink" x="0px" y="0px"
	 width="114.849px" height="17.999px" viewBox="0 0 114.849 17.999" enable-background="new 0 0 114.849 17.999"
	 xml:space="preserve">
<g>
	<g>
		<path fill-rule="evenodd" clip-rule="evenodd" fill="#FFFFFF" d="M17.451,0.134h8.764c2.213,0,3.878,0.559,4.999,1.679
			c1.122,1.125,1.68,2.786,1.68,4.991l0,11.196H21.395c-1.608,0-2.848-0.447-3.713-1.34c-0.865-0.898-1.296-2.165-1.296-3.809
			c0-2.035,0.497-3.487,1.496-4.374c0.994-0.882,2.648-1.322,4.958-1.322h5.629V6.707c0-1.063-0.282-1.809-0.845-2.238
			c-0.569-0.429-1.578-0.644-3.027-0.644h-7.145V0.134z M23.137,14.405h5.362v-3.692h-5.045c-0.998,0-1.69,0.148-2.075,0.447
			c-0.379,0.3-0.568,0.82-0.568,1.554c0,0.633,0.153,1.068,0.456,1.317C21.574,14.28,22.199,14.405,23.137,14.405z"/>
		<path fill-rule="evenodd" clip-rule="evenodd" fill="#FFFFFF" d="M55.221,0.135h8.764c2.214,0,3.878,0.559,5,1.679
			c1.121,1.125,1.68,2.786,1.68,4.991v11.196h-11.5c-1.608,0-2.848-0.446-3.713-1.34c-0.866-0.898-1.296-2.165-1.296-3.809
			c0-2.034,0.497-3.487,1.496-4.374c0.994-0.881,2.648-1.322,4.958-1.322h5.63V6.707c0-1.063-0.282-1.809-0.846-2.238
			c-0.568-0.429-1.577-0.644-3.026-0.644h-7.146V0.135z M60.907,14.405h5.363v-3.691h-5.046c-0.999,0-1.69,0.148-2.074,0.446
			c-0.379,0.3-0.568,0.82-0.568,1.554c0,0.633,0.153,1.069,0.455,1.317C59.345,14.28,59.969,14.405,60.907,14.405z"/>
		<rect x="92.844" y="4.336" fill-rule="evenodd" clip-rule="evenodd" fill="#FFFFFF" width="4.487" height="13.664"/>
		<rect x="92.844" y="0.135" fill-rule="evenodd" clip-rule="evenodd" fill="#FFFFFF" width="4.487" height="2.891"/>
		<path fill-rule="evenodd" clip-rule="evenodd" fill="#FFFFFF" d="M74.399,0.135h8.047c2.428,0,4.164,0.503,5.204,1.514
			c1.04,1.012,1.563,2.684,1.563,5.025l0,11.326h-4.277V7.25c0-1.334-0.19-2.198-0.563-2.599c-0.374-0.396-1.127-0.594-2.259-0.594
			h-3.437l0,13.943l-4.277-0.001V0.135z"/>
		<path fill-rule="evenodd" clip-rule="evenodd" fill="#FFFFFF" d="M36.377,14.275h9.015c0.799,0,1.383-0.136,1.747-0.413
			c0.363-0.277,0.548-0.718,0.548-1.328c0-0.605-0.185-1.051-0.553-1.329c-0.374-0.283-0.953-0.424-1.741-0.424h-3.693
			c-2.187,0-3.667-0.367-4.44-1.108c-0.769-0.741-1.153-2.057-1.153-3.945c0-1.921,0.466-3.335,1.394-4.239
			c0.932-0.904,2.371-1.356,4.323-1.356l9.184,0v3.724h-7.55c-1.23,0-2.029,0.118-2.403,0.356c-0.369,0.237-0.553,0.661-0.553,1.266
			c0,0.554,0.164,0.96,0.487,1.221c0.328,0.26,0.84,0.39,1.537,0.39h3.872c1.772,0,3.125,0.458,4.052,1.368
			c0.932,0.91,1.398,2.227,1.398,3.945c0,1.656-0.415,3.001-1.24,4.041c-0.824,1.034-1.89,1.554-3.191,1.554H36.377V14.275z"/>
		<path fill-rule="evenodd" clip-rule="evenodd" fill="#FFFFFF" d="M9.752,14.172h4.549v3.827H8.492c-1.47,0-2.679-0.17-3.621-0.504
			c-0.947-0.339-1.772-0.881-2.469-1.633c-0.753-0.814-1.337-1.814-1.762-2.99C0.215,11.697,0,10.454,0,9.143
			c0-1.379,0.21-2.668,0.63-3.866C1.05,4.079,1.639,3.073,2.402,2.27c0.707-0.751,1.542-1.294,2.5-1.633
			c0.953-0.334,2.151-0.503,3.591-0.503h5.809v3.86H9.752c-2.008,0-3.396,0.385-4.154,1.153C4.835,5.91,4.456,7.244,4.456,9.143
			c0,1.091,0.154,1.995,0.466,2.713c0.307,0.718,0.789,1.294,1.439,1.735c0.323,0.215,0.692,0.362,1.117,0.452
			C7.903,14.128,8.661,14.172,9.752,14.172z"/>
		<path fill-rule="evenodd" clip-rule="evenodd" fill="#FFFFFF" d="M111.254,7.831c0.015-0.029,0.054-0.117,0.116-0.263
			c0.064-0.149,0.118-0.211,0.161-0.188c0.181,0.037,0.386,0.138,0.618,0.299c0.233,0.159,0.368,0.24,0.411,0.241
			c0.089-0.011,0.025-0.096-0.191-0.26c-0.216-0.164-0.473-0.325-0.772-0.482l0.196-0.373c0.33,0.057,0.775,0.192,1.333,0.395
			c0.56,0.207,0.992,0.39,1.299,0.552c-0.083,0.317-0.225,0.663-0.43,1.039c-0.205,0.376-0.432,0.693-0.69,0.947
			c-0.48-0.263-0.864-0.549-1.157-0.851C111.858,8.585,111.561,8.232,111.254,7.831z"/>
		<path fill-rule="evenodd" clip-rule="evenodd" fill="#FFFFFF" d="M111.67,4.914c0.188-0.356,0.484-0.753,0.893-1.192
			c0.409-0.439,0.727-0.789,0.957-1.053c0.614,0.174,1.058,0.741,1.336,1.706c0.28,0.961,0.279,1.713-0.006,2.254
			c-0.402-0.128-0.893-0.203-1.47-0.234c-0.577-0.031-1.043-0.138-1.4-0.325c0.014-0.109,0.014-0.2,0.004-0.271
			c-0.012-0.075-0.01-0.168,0.008-0.279c0.182-0.017,0.395-0.053,0.626-0.111c0.234-0.059,0.444-0.119,0.631-0.177
			c-0.05,0.018-0.279,0.031-0.687,0.039c-0.406,0.012-0.616,0.029-0.63,0.058L111.67,4.914z"/>
		<path fill-rule="evenodd" clip-rule="evenodd" fill="#FFFFFF" d="M109.502,4.051c0.001-0.53-0.15-1.188-0.462-1.973
			c-0.308-0.784-0.329-1.431-0.059-1.944c0.285-0.148,0.645-0.174,1.084-0.077c0.442,0.093,0.874,0.248,1.299,0.461
			c0.422,0.215,0.792,0.452,1.108,0.717c0.315,0.264,0.48,0.492,0.498,0.677c-0.021,0.352-0.255,0.797-0.699,1.338
			c-0.445,0.541-0.72,0.989-0.829,1.342l-0.809-0.425c0.024-0.122,0.079-0.304,0.171-0.547c0.091-0.243,0.115-0.441,0.068-0.593
			c-0.096,0.113-0.199,0.288-0.308,0.529c-0.108,0.241-0.201,0.439-0.28,0.587C110.184,4.09,109.922,4.061,109.502,4.051z"/>
		<path fill-rule="evenodd" clip-rule="evenodd" fill="#FFFFFF" d="M108.803,8.619c-0.094,0.522-0.362,1.141-0.81,1.858
			c-0.445,0.715-0.581,1.348-0.409,1.901c0.254,0.197,0.602,0.287,1.053,0.272c0.451-0.012,0.903-0.086,1.361-0.218
			c0.453-0.135,0.861-0.303,1.218-0.506c0.358-0.203,0.56-0.397,0.614-0.574c0.042-0.351-0.107-0.83-0.447-1.442
			c-0.339-0.612-0.529-1.103-0.573-1.47l-0.873,0.272c0.002,0.125,0.024,0.313,0.07,0.569c0.046,0.255,0.034,0.455-0.04,0.596
			c-0.074-0.129-0.144-0.32-0.206-0.576c-0.064-0.257-0.119-0.469-0.17-0.628C109.48,8.705,109.218,8.686,108.803,8.619z"/>
		<path fill-rule="evenodd" clip-rule="evenodd" fill="#FFFFFF" d="M107.389,5.359l-3.091-1.217
			c-0.378-0.159-0.468-0.493-0.271-1.007c0.2-0.513,0.52-1.025,0.964-1.537c0.444-0.512,0.924-0.936,1.444-1.267
			c0.517-0.332,0.908-0.399,1.166-0.206c0.2,0.637,0.453,1.278,0.765,1.922c0.311,0.647,0.553,1.272,0.724,1.874
			c-0.065,0.123-0.187,0.204-0.372,0.245c-0.185,0.041-0.33,0.121-0.434,0.238c-0.228-0.12-0.409-0.302-0.546-0.545
			c-0.136-0.242-0.329-0.427-0.579-0.559c0.037,0.241,0.153,0.483,0.339,0.731c0.19,0.248,0.376,0.441,0.563,0.575
			c-0.081,0.154-0.191,0.293-0.328,0.417C107.598,5.149,107.482,5.259,107.389,5.359z"/>
		<path fill-rule="evenodd" clip-rule="evenodd" fill="#FFFFFF" d="M108.081,8.391l-2.258,2.437
			c-0.286,0.295-0.63,0.257-1.037-0.115c-0.404-0.373-0.765-0.857-1.081-1.457c-0.316-0.6-0.535-1.203-0.654-1.806
			c-0.122-0.602-0.042-0.991,0.232-1.161c0.665,0.045,1.354,0.044,2.068-0.014c0.716-0.054,1.386-0.052,2.009,0.008
			c0.091,0.104,0.122,0.248,0.093,0.436c-0.03,0.187-0.006,0.351,0.064,0.49c-0.195,0.169-0.43,0.271-0.707,0.31
			c-0.274,0.038-0.517,0.15-0.731,0.336c0.238,0.053,0.506,0.034,0.804-0.05c0.301-0.086,0.548-0.19,0.741-0.315
			c0.114,0.131,0.204,0.283,0.269,0.457C107.961,8.12,108.022,8.268,108.081,8.391z"/>
	</g>
</g>
</svg>
