<?xml version="1.0" encoding="utf-8"?>
<!-- Generator: Adobe Illustrator 17.0.0, SVG Export Plug-In . SVG Version: 6.00 Build 0)  -->
<!DOCTYPE svg PUBLIC "-//W3C//DTD SVG 1.1//EN" "http://www.w3.org/Graphics/SVG/1.1/DTD/svg11.dtd">
<svg version="1.1" id="Capa_1" xmlns="http://www.w3.org/2000/svg" xmlns:xlink="http://www.w3.org/1999/xlink" x="0px" y="0px"
	 width="16.769px" height="18.409px" viewBox="0 0 16.769 18.409" enable-background="new 0 0 16.769 18.409" xml:space="preserve">
<g>
	<g>
		<g>
			<g>
				<g opacity="0.4">
					<g>
						<defs>
							<rect id="SVGID_7_" x="0" y="0" width="16.768" height="18.409"/>
						</defs>
						<clipPath id="SVGID_2_">
							<use xlink:href="#SVGID_7_"  overflow="visible"/>
						</clipPath>
						<g clip-path="url(#SVGID_2_)">
							<g>
								<defs>
									<rect id="SVGID_9_" x="5.849" y="0" width="10.919" height="18.409"/>
								</defs>
								<clipPath id="SVGID_4_">
									<use xlink:href="#SVGID_9_"  overflow="visible"/>
								</clipPath>
								<path clip-path="url(#SVGID_4_)" fill="#E50058" d="M16.228,7.764L9.005,0.541c-0.722-0.722-1.893-0.722-2.614,0
									c-0.723,0.722-0.723,1.893,0,2.615l6.048,6.048l-6.048,6.048c-0.723,0.723-0.723,1.893,0,2.615
									c0.361,0.361,0.834,0.541,1.307,0.541c0.473,0,0.946-0.18,1.307-0.542l7.223-7.223c0.395-0.395,0.572-0.924,0.535-1.44
									C16.8,8.688,16.623,8.159,16.228,7.764"/>
							</g>
						</g>
						<g clip-path="url(#SVGID_2_)">
							<g>
								<defs>
									<rect id="SVGID_11_" x="0" y="2.925" width="8.129" height="12.56"/>
								</defs>
								<clipPath id="SVGID_6_">
									<use xlink:href="#SVGID_11_"  overflow="visible"/>
								</clipPath>
								<path clip-path="url(#SVGID_6_)" fill="#E50058" d="M8.129,9.205c0-0.473-0.18-0.946-0.542-1.307L3.156,3.466
									C2.434,2.745,1.263,2.744,0.542,3.466c-0.722,0.721-0.722,1.892,0,2.614l3.124,3.124l-3.124,3.123
									c-0.722,0.723-0.722,1.893,0,2.615c0.361,0.361,0.834,0.542,1.308,0.542c0.473,0,0.946-0.18,1.307-0.541l4.431-4.432
									C7.949,10.151,8.129,9.677,8.129,9.205"/>
							</g>
						</g>
					</g>
				</g>
				<path fill="#E50058" d="M16.229,7.764L9.006,0.541c-0.722-0.722-1.893-0.722-2.614,0c-0.723,0.722-0.723,1.893,0,2.615
					l6.048,6.048l-6.048,6.048c-0.723,0.723-0.723,1.893,0,2.615c0.361,0.361,0.834,0.541,1.307,0.541
					c0.473,0,0.946-0.18,1.307-0.542l7.223-7.223c0.395-0.395,0.572-0.924,0.535-1.44C16.801,8.688,16.624,8.159,16.229,7.764"/>
				<path fill="#E50058" d="M8.13,9.205c0-0.473-0.18-0.946-0.542-1.307L3.157,3.466C2.434,2.745,1.264,2.744,0.542,3.466
					c-0.722,0.721-0.722,1.892,0,2.614l3.124,3.124l-3.124,3.123c-0.722,0.723-0.722,1.893,0,2.615
					c0.361,0.361,0.834,0.542,1.308,0.542c0.473,0,0.946-0.18,1.307-0.541l4.431-4.432C7.949,10.151,8.13,9.677,8.13,9.205"/>
			</g>
		</g>
	</g>
</g>
</svg>
