<?xml version="1.0" encoding="utf-8"?>
<!-- Generator: Adobe Illustrator 17.0.0, SVG Export Plug-In . SVG Version: 6.00 Build 0)  -->
<!DOCTYPE svg PUBLIC "-//W3C//DTD SVG 1.1//EN" "http://www.w3.org/Graphics/SVG/1.1/DTD/svg11.dtd">
<svg version="1.1" id="Capa_1" xmlns="http://www.w3.org/2000/svg" xmlns:xlink="http://www.w3.org/1999/xlink" x="0px" y="0px"
	 width="234.702px" height="228.181px" viewBox="0 0 234.702 228.181" enable-background="new 0 0 234.702 228.181"
	 xml:space="preserve">
<g id="Layer_2">
</g>
<g id="Layer_1">
	<g>
		<g>
			<g>
				<path fill="#BA2929" d="M125.352,102.585c10.836,6.075,50.96,16.943,60.573,14.842c16.281-14.83,15.3-37.617,5.595-43.484
					c-9.697-6.389-25.265-5.54-36.152,1.398c-10.546,4.879-24.968,10.088-49.8,2.617C105.331,84.269,118.053,98.491,125.352,102.585
					z"/>
				<g>
					<path fill="#9E2323" d="M125.678,102.935c-4.9-3.156-9.827-6.38-12.525-11.662c3.104,2.142,6.33,3.262,9.61,3.65
						c1.64,0.192,3.293,0.202,4.953,0.067c3.631-0.605,6.793-0.736,10.253-1.989c12.818-4.806,25.613-12.263,39.018-7.304
						c1.278,0.172,2.576,0.274,3.929,0.302c2.003,0.077,4.763-0.264,6.438,0.911c1.676,1.177,1.941,3.686,2.046,5.459
						c0.266,2.507,0.314,5.32-0.125,7.853c-0.01,0.304-0.034,0.611-0.065,0.918c-0.151,0.149-0.309,0.3-0.463,0.451
						c-0.297,0.288-0.595,0.578-0.902,0.868c-0.19,0.18-0.386,0.36-0.581,0.542c-0.309,0.285-0.623,0.569-0.943,0.856
						c-0.175,0.156-0.346,0.312-0.525,0.468c-0.503,0.441-1.012,0.882-1.538,1.324c-7.891,6.617-17.552,8.243-26.92,7.449
						c-1.875-0.158-3.737-0.415-5.571-0.746c-8.143-2.458-15.912-4.024-23.008-7.764
						C127.623,104.007,126.591,103.449,125.678,102.935z"/>
				</g>
			</g>
			<g>
				<path fill="#F7931E" d="M141.428,109.625c-29.273-4.641-47.971,21.128-69.375,10.814c7.313,26.028,35.133,17.087,30.72,42.054
					c28.904,10.664,49.72-21.317,63.197-17.056L141.428,109.625z"/>
				<path fill="#E6E6E6" d="M139.704,109.388c0.033,0.751,0.072,1.204,0.106,1.288c0.007-0.003,0.015-0.009,0.022-0.012
					c-0.002,0.005-0.003,0.01-0.003,0.017l-1.115-0.314c0,0-37.512-7.826-12.021,24.935c-0.864,1.372-1.756,2.693-2.667,3.928
					l0.002,0.002l-6.956,8.735l-14.134,6.166c0.437,2.291,0.429,5.02-0.161,8.359c0.748,0.276,1.489,0.516,2.224,0.736
					c1.477-3.152-0.118-7.497-0.118-7.497l15.242-4.284l6.414-5.934c4.984,4.385,9.637,7.97,13.671,10.822
					c10.479-6.123,19.036-13.026,25.764-10.901l-24.543-35.811C140.848,109.532,140.275,109.457,139.704,109.388z M130.321,129.009
					c-4.353-5.533-12.151-17.516,6.109-12.94C134.95,119.578,132.832,124.292,130.321,129.009z"/>
				<path fill="#E6E6E6" d="M75.626,124.574c0,0,2.391,6.013,6.809,9.57c0,0-3.13-4.495-3.595-6.869c0,0,16.681,1.038,29.004-9.848
					C107.845,117.427,92.059,127.397,75.626,124.574z"/>
			</g>
			<g>
				<g>
					<g>
						<g>
							<g>
								<g>
									<g>
										<g>
											<g>
												<polygon fill="#F5F5F5" points="216.767,83.993 217.122,82.608 222.962,84.518 222.521,85.88 												"/>
											</g>
										</g>
									</g>
								</g>
							</g>
						</g>
					</g>
					<g>
						<g>
							<g>
								<g>
									<g>
										<g>
											<g>
												<path fill="#E83185" d="M184.978,129.182c0,0,28.1-11.863,38.066-43.592l-6.419-2.408c0,0-8.215,27.256-30.285,38.503
													L184.978,129.182z"/>
											</g>
										</g>
									</g>
								</g>
							</g>
						</g>
					</g>
					<g>
						<path fill="#E6E6E6" d="M186.34,121.687l-1.362,7.495c0,0,3.725-1.574,8.944-5.106c0.417-2.845,0.695-5.593,0.878-7.929
							C192.24,118.23,189.426,120.114,186.34,121.687z"/>
					</g>
					<g>
						<g>
							<g>
								<g>
									<g>
										<g>
											<g>
												<circle fill="#C23838" cx="220.504" cy="88.447" r="0.628"/>
											</g>
										</g>
									</g>
								</g>
							</g>
						</g>
					</g>
					<g>
						<g>
							<g>
								<g>
									<g>
										<g>
											<g>
												<circle fill="#C23838" cx="221.266" cy="86.453" r="0.628"/>
											</g>
										</g>
									</g>
								</g>
							</g>
						</g>
					</g>
				</g>
			</g>
			<g>
				<g>
					<g>
						<g>
							<g>
								<g>
									<g>
										<path fill="#FDDBBB" d="M139.767,110.712c0,0,10.189-43.698,37.267-38.052c34.516,7.198,10.832,54.474,10.832,54.474
											L139.767,110.712z"/>
									</g>
								</g>
							</g>
						</g>
					</g>
				</g>
			</g>
			<g>
				<g>
					<g>
						<g>
							<g>
								<g>
									<g>
										<g>
											<g>
												<g>
													<path fill="#C23838" d="M160.818,164.739l-12.342,10.354l-15.165,4.289c0,0,5.72,4.168,0.475,9.678
														c-4.65,4.885-4.375-11.109-4.375-11.109l16.739-6.27l7.385-7.423c0,0-12.287-6.21-27.619-20.437l-6.569,5.764
														L104,153.467c0,0,3.307,9.778-5.138,10.493c-4.42,0.374,2.317-11.771,2.317-11.771l15.211-6.164l7.193-8.56
														C123.581,137.466,141.421,143.926,160.818,164.739z"/>
												</g>
											</g>
										</g>
									</g>
								</g>
							</g>
						</g>
						<g>
							<g>
								<g>
									<g>
										<g>
											<g>
												<g>
													<path fill="#E83185" d="M155.138,114.016l8.743,24.67l21.157-14.882l4.315,1.461c0,0-7.598,20.941-28.547,39.484
														l-37.236-27.275c8.406-10.788,15.441-28.467,15.441-28.467L155.138,114.016z"/>
												</g>
											</g>
										</g>
									</g>
								</g>
							</g>
						</g>
						<g>
							<g>
								<g>
									<g>
										<g>
											<g>
												<g>
													<g>
														<g>
															<polygon fill="#F5F5F5" points="185.038,123.802 163.883,138.684 155.138,114.016 															"/>
														</g>
													</g>
												</g>
											</g>
										</g>
									</g>
								</g>
								<g>
									<g>
										<g>
											<g>
												<g>
													<g>
														<g>
															<polygon fill="#C23838" points="185.038,123.802 182.447,132.305 177.363,131.7 175.906,138.344 163.883,138.684 
																															"/>
														</g>
													</g>
												</g>
											</g>
										</g>
									</g>
								</g>
								<g>
									<g>
										<g>
											<g>
												<g>
													<g>
														<g>
															<polygon fill="#C23838" points="163.883,138.684 155.16,130.194 157.074,125.646 152.663,122.171 155.138,114.016 
																															"/>
														</g>
													</g>
												</g>
											</g>
										</g>
									</g>
								</g>
							</g>
						</g>
						<g>
							<g>
								<g>
									<g>
										<g>
											<g>
												<g>
													<circle fill="#C23838" cx="162.094" cy="142.119" r="1.441"/>
												</g>
											</g>
										</g>
									</g>
								</g>
							</g>
						</g>
						<g>
							<g>
								<g>
									<g>
										<g>
											<g>
												<g>
													<circle fill="#C23838" cx="158.992" cy="147.139" r="1.441"/>
												</g>
											</g>
										</g>
									</g>
								</g>
							</g>
						</g>
					</g>
				</g>
			</g>
			
				<ellipse transform="matrix(0.1592 -0.9872 0.9872 0.1592 47.82 245.4591)" fill="#4F423A" cx="168.017" cy="94.655" rx="3.596" ry="1.859"/>
			
				<ellipse transform="matrix(0.1592 -0.9872 0.9872 0.1592 62.6888 269.4244)" fill="#4F423A" cx="189.521" cy="97.908" rx="3.596" ry="1.859"/>
			<g>
				<g>
					<g>
						<g>
							<path fill="#FDDBBB" d="M127.549,134.073c0,0,2.946,5.133,6.234,2.207c3.288-2.926-2.038-5.6-2.038-5.6L127.549,134.073z"/>
						</g>
					</g>
				</g>
				<g>
					<polygon fill="#F5F5F5" points="131.437,129.866 132.453,130.842 127.645,134.466 126.772,133.333 					"/>
				</g>
				<g>
					<path fill="#E83185" d="M139.011,109.008c0,0-37.611-8.889-12.373,25.023l5.62-3.926c0,0-19.207-22.219,4.735-15.343
						L139.011,109.008z"/>
				</g>
				<g>
					<circle fill="#C23838" cx="125.724" cy="130.319" r="0.628"/>
				</g>
				<g>
					<circle fill="#C23838" cx="126.937" cy="132.079" r="0.628"/>
				</g>
			</g>
			<g>
				<g>
					<path fill="#FF0000" d="M176.725,110.477c0,0-3.749,0.314-6.637-2.262c0,0-2.494,4.667,2.888,5.061
						C176.873,113.565,176.725,110.477,176.725,110.477z"/>
				</g>
			</g>
			<path fill="#BA2929" d="M194.66,104.866c0,0,1.087-16.3-5.704-20.502c0,0-20.377,5.097-41.311,2.799
				c0,0,5.392-17.559,25.543-17.676C194.171,70.413,204.256,85.53,194.66,104.866z"/>
			<g>
				<g>
					<g>
						<g>
							<g>
								<g>
									<path fill="#FDDBBB" d="M222.72,84.554c0,0,2.626-4.897-0.967-5.987c-3.574-1.084-4.12,4.188-4.12,4.188L222.72,84.554z"/>
								</g>
							</g>
						</g>
					</g>
				</g>
			</g>
		</g>
		<g>
			<g>
				<g>
					<g>
						<path fill="#C9482A" d="M75.989,87.099c-29.273-4.641-47.971,21.128-69.375,10.814c7.313,26.026,35.132,17.086,30.72,42.054
							c28.904,10.664,49.72-21.317,63.197-17.056L75.989,87.099z"/>
						<path fill="#E6E6E6" d="M74.264,86.863c0.033,0.751,0.072,1.204,0.106,1.288c0.007-0.003,0.015-0.009,0.022-0.012
							c-0.002,0.005-0.003,0.01-0.003,0.017l-1.115-0.314c0,0-37.512-7.826-12.021,24.935c-0.864,1.372-1.756,2.693-2.667,3.928
							l0.002,0.002l-6.956,8.735l-14.134,6.166c0.437,2.291,0.429,5.02-0.161,8.359c0.748,0.276,1.489,0.516,2.224,0.736
							c1.477-3.152-0.118-7.497-0.118-7.497l15.242-4.284l6.414-5.934c4.984,4.385,9.637,7.97,13.671,10.822
							c10.479-6.123,19.036-13.026,25.764-10.901L75.991,87.098C75.409,87.007,74.835,86.931,74.264,86.863z M64.882,106.483
							c-4.353-5.533-12.151-17.516,6.109-12.94C69.511,97.052,67.393,101.767,64.882,106.483z"/>
						<path fill="#E6E6E6" d="M10.187,102.048c0,0,2.391,6.013,6.809,9.57c0,0-3.13-4.495-3.595-6.869
							c0,0,16.681,1.038,29.004-9.848C42.406,94.901,26.621,104.869,10.187,102.048z"/>
					</g>
					<g>
						<g>
							<g>
								<g>
									<g>
										<g>
											<g>
												<g>
													<g>
														<polygon fill="#F5F5F5" points="151.329,61.468 151.684,60.082 157.524,61.992 157.083,63.352 														"/>
													</g>
												</g>
											</g>
										</g>
									</g>
								</g>
							</g>
							<g>
								<g>
									<g>
										<g>
											<g>
												<g>
													<g>
														<path fill="#414042" d="M119.538,106.656c0,0,28.1-11.863,38.066-43.592l-6.42-2.408c0,0-8.215,27.256-30.285,38.503
															L119.538,106.656z"/>
													</g>
												</g>
											</g>
										</g>
									</g>
								</g>
							</g>
							<g>
								<path fill="#E6E6E6" d="M120.902,99.161l-1.362,7.495c0,0,3.725-1.574,8.944-5.106c0.417-2.845,0.695-5.593,0.878-7.929
									C126.801,95.702,123.987,97.589,120.902,99.161z"/>
							</g>
							<g>
								<g>
									<g>
										<g>
											<g>
												<g>
													<g>
														<circle fill="#6D6E71" cx="155.064" cy="65.922" r="0.628"/>
													</g>
												</g>
											</g>
										</g>
									</g>
								</g>
							</g>
							<g>
								<g>
									<g>
										<g>
											<g>
												<g>
													<g>
														<circle fill="#6D6E71" cx="155.827" cy="63.927" r="0.628"/>
													</g>
												</g>
											</g>
										</g>
									</g>
								</g>
							</g>
						</g>
					</g>
					<g>
						<g>
							<g>
								<g>
									<g>
										<g>
											<g>
												<path fill="#FDDBBB" d="M74.327,88.185c0,0,10.189-43.698,37.267-38.052c34.516,7.198,10.832,54.474,10.832,54.474
													L74.327,88.185z"/>
											</g>
										</g>
									</g>
								</g>
							</g>
						</g>
					</g>
					<g>
						<g>
							<g>
								<g>
									<g>
										<g>
											<g>
												<g>
													<g>
														<g>
															<path fill="#414042" d="M95.378,142.213l-12.342,10.354l-15.165,4.289c0,0,5.72,4.168,0.475,9.678
																c-4.65,4.885-4.375-11.109-4.375-11.109l16.739-6.27l7.385-7.423c0,0-12.287-6.21-27.619-20.437l-6.569,5.764
																l-15.348,3.881c0,0,3.307,9.778-5.138,10.493c-4.42,0.374,2.317-11.771,2.317-11.771l15.211-6.164l7.193-8.56
																C58.142,114.938,75.982,121.401,95.378,142.213z"/>
														</g>
													</g>
												</g>
											</g>
										</g>
									</g>
								</g>
								<g>
									<g>
										<g>
											<g>
												<g>
													<g>
														<g>
															<path fill="#414042" d="M89.699,91.488l8.743,24.67l21.157-14.882l4.315,1.461c0,0-7.598,20.941-28.547,39.484
																l-37.236-27.273c8.406-10.788,15.441-28.467,15.441-28.467L89.699,91.488z"/>
														</g>
													</g>
												</g>
											</g>
										</g>
									</g>
								</g>
								<g>
									<g>
										<g>
											<g>
												<g>
													<g>
														<g>
															<g>
																<g>
																	<polygon fill="#F5F5F5" points="119.6,101.276 98.443,116.158 89.699,91.488 																	"/>
																</g>
															</g>
														</g>
													</g>
												</g>
											</g>
										</g>
										<g>
											<g>
												<g>
													<g>
														<g>
															<g>
																<g>
																	<polygon fill="#6D6E71" points="119.6,101.276 117.008,109.779 111.925,109.174 110.467,115.816 98.443,116.158 
																																			"/>
																</g>
															</g>
														</g>
													</g>
												</g>
											</g>
										</g>
										<g>
											<g>
												<g>
													<g>
														<g>
															<g>
																<g>
																	<polygon fill="#6D6E71" points="98.443,116.158 89.722,107.666 91.636,103.12 87.223,99.645 89.699,91.488 
																																			"/>
																</g>
															</g>
														</g>
													</g>
												</g>
											</g>
										</g>
										<g>
											<g>
												<g>
													<g>
														<g>
															<g>
																<g>
																	<polygon fill="#414042" points="107.848,101.983 107.054,99.112 103.044,97.628 100.616,99.968 101.614,102.42 
																		96.462,110.603 98.443,116.158 104.067,112.206 105.181,103.7 																	"/>
																</g>
															</g>
														</g>
													</g>
												</g>
											</g>
										</g>
									</g>
								</g>
								<g>
									<g>
										<g>
											<g>
												<g>
													<g>
														<g>
															<circle fill="#6D6E71" cx="96.654" cy="119.593" r="1.441"/>
														</g>
													</g>
												</g>
											</g>
										</g>
									</g>
								</g>
								<g>
									<g>
										<g>
											<g>
												<g>
													<g>
														<g>
															<circle fill="#6D6E71" cx="93.553" cy="124.611" r="1.441"/>
														</g>
													</g>
												</g>
											</g>
										</g>
									</g>
								</g>
							</g>
						</g>
					</g>
					<g>
						<g>
							<g>
								<g>
									<g>
										<g>
											<g>
												<g>
													<g>
														<path fill="#4F423A" d="M139.009,46.176c0,0-1.708,31.417-43.853,12.896l-3.926,9.11c0,0-2.617-4.77-5.022-0.914
															c-2.766,4.439,2.758,3.957,2.758,3.957s-7.732,9.833-13.482,12.498C75.15,82.82,75.3,35.836,93.611,44.502
															c0.535-1.074,5.396-7.857,16.933-5.984C127.993,41.352,123.953,54.621,139.009,46.176z"/>
													</g>
												</g>
											</g>
										</g>
									</g>
								</g>
							</g>
						</g>
					</g>
					
						<ellipse transform="matrix(0.1592 -0.9872 0.9872 0.1592 15.0396 161.9196)" fill="#4F423A" cx="102.581" cy="72.13" rx="3.596" ry="1.859"/>
					
						<ellipse transform="matrix(0.1592 -0.9872 0.9872 0.1592 29.9048 185.8855)" fill="#4F423A" cx="124.084" cy="75.386" rx="3.596" ry="1.859"/>
					<g>
						<g>
							<g>
								<g>
									<path fill="#FDDBBB" d="M62.111,111.546c0,0,2.946,5.133,6.234,2.207c3.288-2.926-2.038-5.6-2.038-5.6L62.111,111.546z"/>
								</g>
							</g>
						</g>
						<g>
							<polygon fill="#F5F5F5" points="65.999,107.341 67.014,108.315 62.205,111.94 61.334,110.805 							"/>
						</g>
						<g>
							<path fill="#414042" d="M73.573,86.482c0,0-37.611-8.889-12.373,25.023l5.62-3.926c0,0-19.207-22.219,4.735-15.343
								L73.573,86.482z"/>
						</g>
						<g>
							<circle fill="#6D6E71" cx="60.286" cy="107.793" r="0.628"/>
						</g>
						<g>
							<circle fill="#6D6E71" cx="61.497" cy="109.551" r="0.628"/>
						</g>
					</g>
					<g>
						<g>
							<path fill="#EB7D86" d="M118.302,85.748c0,0-9.105-2.893-15.228-2.681c0,0-2.624,7.342,6.217,9.162
								C118.041,94.032,118.302,85.748,118.302,85.748z"/>
						</g>
					</g>
				</g>
			</g>
			<g>
				<g>
					<g>
						<g>
							<g>
								<g>
									<path fill="#FDDBBB" d="M157.167,61.878c0,0,2.521-4.951-1.094-5.965c-3.597-1.008-4.03,4.276-4.03,4.276L157.167,61.878z"
										/>
								</g>
							</g>
						</g>
					</g>
				</g>
			</g>
		</g>
	</g>
</g>
</svg>
