<?xml version="1.0" encoding="utf-8"?>
<!-- Generator: Adobe Illustrator 17.0.0, SVG Export Plug-In . SVG Version: 6.00 Build 0)  -->
<!DOCTYPE svg PUBLIC "-//W3C//DTD SVG 1.1//EN" "http://www.w3.org/Graphics/SVG/1.1/DTD/svg11.dtd">
<svg version="1.1" id="Capa_1" xmlns="http://www.w3.org/2000/svg" xmlns:xlink="http://www.w3.org/1999/xlink" x="0px" y="0px"
	 width="233px" height="185px" viewBox="0 0 233 185" enable-background="new 0 0 233 185" xml:space="preserve">
<g id="Layer_2">
</g>
<g id="Layer_1">
	<g>
		<rect x="35.697" y="26.65" fill="#FDFEFE" width="163.85" height="107.569"/>
		<path fill="#313D4D" d="M206.773,32.15c0-5.114-4.146-9.259-9.259-9.259H38.727c-5.114,0-9.259,4.146-9.259,9.259v96.498
			c0,5.114,4.146,9.259,9.259,9.259h158.789c5.114,0,9.259-4.146,9.259-9.259V32.15H206.773z M197.43,121.974
			c0,5.114-4.146,9.259-9.259,9.259H47.848c-5.114,0-9.259-4.146-9.259-9.259V39.49c0-5.114,4.146-9.259,9.259-9.259h140.323
			c5.114,0,9.259,4.146,9.259,9.259L197.43,121.974L197.43,121.974z"/>
		<path fill="#313D4D" d="M213.797,141.021c-1.296,0-90.098,0-97.101,0c0,0-0.151,0-0.439,0c-7.002,0-95.758,0-97.054,0
			c-1.35,0,5.472,16.907,13.239,16.907c7.424,0,77.616,0,83.814,0c0.287,0,0.439,0,0.439,0c6.202,0,76.436,0,83.862,0
			C208.326,157.928,215.146,141.021,213.797,141.021z"/>
		<path fill="#FDFEFE" d="M133.406,152.284H102.89c-1.365,0-2.48-1.116-2.48-2.48v-0.914c0-1.365,1.116-2.48,2.48-2.48h30.516
			c1.365,0,2.48,1.116,2.48,2.48v0.914C135.887,151.169,134.769,152.284,133.406,152.284z"/>
		<path fill="#ED5C56" d="M154.533,47.356h-2.245c-0.305-1.276-0.805-2.435-1.466-3.499l0.008-0.011l1.588-1.59
			c0.353-0.353,0.353-0.926,0-1.279l-2.761-2.761c-0.353-0.353-0.924-0.353-1.279,0l-1.567,1.588
			c-1.101-0.67-2.287-1.148-3.487-1.435v-0.01v-2.245c0-0.499-0.446-0.915-0.945-0.915h-3.905c-0.499,0-0.853,0.415-0.853,0.915
			v2.245c-1.276,0.305-2.454,0.805-3.519,1.466l-0.021-0.007l-1.594-1.588c-0.353-0.353-0.928-0.353-1.28,0l-2.763,2.761
			c-0.353,0.353-0.354,0.924-0.002,1.277l1.586,1.583c-0.67,1.101-1.148,2.303-1.435,3.504h-0.011h-2.245
			c-0.499,0-0.876,0.413-0.876,0.914v3.905c0,0.499,0.377,0.886,0.876,0.886h2.245c0.305,1.276,0.805,2.438,1.466,3.504
			l-0.008,0.012l-1.588,1.59c-0.353,0.353-0.353,0.926,0,1.279l2.761,2.761c0.353,0.353,0.924,0.353,1.277,0l1.602-1.588
			c1.101,0.67,2.322,1.148,3.523,1.435v0.011v2.245c0,0.499,0.376,0.907,0.875,0.907h3.905c0.499,0,0.924-0.408,0.924-0.907v-2.245
			c1.276-0.305,2.419-0.805,3.484-1.466l0.002,0.008l1.585,1.588c0.353,0.353,0.924,0.353,1.277,0l2.761-2.761
			c0.353-0.353,0.353-0.924,0-1.277l-1.588-1.586c0.672-1.101,1.148-2.306,1.435-3.507h0.01h2.245c0.499,0,0.946-0.407,0.946-0.906
			v-3.905C155.479,47.748,155.031,47.356,154.533,47.356z M138.171,55.38c-0.054-0.025-0.109-0.048-0.161-0.074
			c-0.163-0.079-0.323-0.167-0.478-0.26c-0.078-0.047-0.154-0.097-0.229-0.146s-0.148-0.103-0.221-0.157
			c-0.035-0.027-0.072-0.054-0.107-0.082c-0.205-0.161-0.398-0.336-0.578-0.522c-0.18-0.186-0.348-0.387-0.502-0.598
			c-0.06-0.084-0.12-0.171-0.177-0.258c-0.169-0.262-0.318-0.542-0.443-0.833c-0.291-0.679-0.452-1.427-0.452-2.213
			c0-1.65,0.71-3.134,1.843-4.163c0.099-0.09,0.204-0.179,0.309-0.261c0.035-0.028,0.072-0.056,0.107-0.082
			c0.072-0.054,0.146-0.105,0.221-0.157c0.224-0.152,0.46-0.287,0.705-0.406c0.082-0.039,0.165-0.078,0.249-0.112
			c0.673-0.284,1.412-0.441,2.189-0.441c0.922,0,1.792,0.222,2.559,0.615c0.081,0.042,0.16,0.085,0.239,0.13
			c0.118,0.068,0.233,0.14,0.345,0.216c0.074,0.05,0.148,0.103,0.221,0.157c0.035,0.027,0.072,0.054,0.107,0.082
			c0.072,0.056,0.14,0.113,0.208,0.173c0.103,0.089,0.2,0.18,0.297,0.275c0.064,0.064,0.126,0.129,0.186,0.196
			c0.151,0.167,0.292,0.342,0.423,0.525c0.053,0.073,0.103,0.148,0.152,0.224c0.048,0.076,0.097,0.154,0.142,0.231
			c0.068,0.118,0.13,0.237,0.191,0.361c0.356,0.738,0.555,1.565,0.555,2.438c0,0.485-0.062,0.955-0.177,1.404
			c-0.023,0.09-0.048,0.179-0.076,0.268c-0.041,0.132-0.087,0.262-0.136,0.39c-0.035,0.085-0.068,0.169-0.107,0.252
			c-0.025,0.056-0.051,0.111-0.078,0.165c-0.053,0.109-0.111,0.216-0.171,0.32c-0.045,0.079-0.091,0.155-0.142,0.231
			c-0.039,0.06-0.079,0.12-0.12,0.179c-0.035,0.053-0.073,0.104-0.112,0.155c-0.027,0.035-0.054,0.072-0.082,0.107
			c-0.056,0.072-0.113,0.14-0.173,0.208c-0.029,0.035-0.059,0.068-0.09,0.101c-0.06,0.066-0.123,0.132-0.186,0.196
			c-0.031,0.031-0.064,0.064-0.097,0.095c-0.13,0.124-0.266,0.243-0.408,0.353c-0.035,0.028-0.072,0.056-0.107,0.082
			c-0.072,0.054-0.146,0.105-0.221,0.157c-0.074,0.051-0.151,0.099-0.229,0.146c-0.039,0.023-0.078,0.047-0.117,0.068
			c-0.078,0.045-0.159,0.089-0.239,0.13c-0.767,0.393-1.637,0.615-2.559,0.615c-0.741,0-1.45-0.144-2.099-0.406
			C138.287,55.431,138.228,55.406,138.171,55.38z"/>
		<rect x="46.914" y="37.341" fill="#848484" width="72.191" height="8.45"/>
		<rect x="46.914" y="49.003" fill="#848484" width="72.191" height="8.45"/>
		<rect x="47.074" y="94.441" fill="#848484" width="8.45" height="32.304"/>
		<rect x="59.791" y="94.441" fill="#848484" width="8.45" height="32.304"/>
		<rect x="72.506" y="94.441" fill="#848484" width="8.45" height="32.304"/>
		<rect x="85.223" y="94.441" fill="#848484" width="8.45" height="32.304"/>
		<rect x="97.94" y="94.441" fill="#848484" width="8.45" height="32.304"/>
		<rect x="110.655" y="94.441" fill="#848484" width="8.45" height="32.304"/>
		<rect x="161.22" y="35.2" fill="#848484" width="30.016" height="30.018"/>
		<rect x="47.074" y="60.515" fill="#FCB64A" width="33.329" height="30.834"/>
		<rect x="85.776" y="60.515" fill="#FCB64A" width="33.329" height="30.834"/>
		<rect x="125.461" y="73.66" fill="#848484" width="65.775" height="5.732"/>
		<rect x="125.461" y="83.02" fill="#848484" width="65.775" height="5.732"/>
		<rect x="125.461" y="92.381" fill="#848484" width="65.775" height="5.732"/>
		<rect x="125.461" y="102.416" fill="#848484" width="65.775" height="24.327"/>
	</g>
</g>
</svg>
