<?xml version="1.0" encoding="utf-8"?>
<!-- Generator: Adobe Illustrator 17.0.0, SVG Export Plug-In . SVG Version: 6.00 Build 0)  -->
<!DOCTYPE svg PUBLIC "-//W3C//DTD SVG 1.1//EN" "http://www.w3.org/Graphics/SVG/1.1/DTD/svg11.dtd">
<svg version="1.1" id="Capa_1" xmlns="http://www.w3.org/2000/svg" xmlns:xlink="http://www.w3.org/1999/xlink" x="0px" y="0px"
	 width="267px" height="279px" viewBox="-56.051 -86.274 267 279" enable-background="new -56.051 -86.274 267 279"
	 xml:space="preserve">
<g id="Layer_2">
</g>
<g id="Layer_1">
	<g>
		<path fill="#DDA936" d="M145.11,113.346c0,11.814-8.517,21.389-19.017,21.389H27.211c-10.501,0-19.015-9.575-19.015-21.389V43.749
			c0-9.948,48.138-36.6,63.354-44.777c2.856-1.535,6.151-1.599,8.863-0.166c15.1,7.974,64.696,34.928,64.696,44.944
			C145.11,43.749,145.11,113.346,145.11,113.346z"/>
		<path fill="#D8D8D8" d="M123.416-22.67h-18.833H50.62H31.787c-4.394,0-8.069,2.936-8.069,6.658V4.805v104.256
			c0,3.722,3.618,6.7,8.014,6.7l0.055-0.041h91.629v0.041c4.119,0,7.501-2.633,7.907-6.032c0.027-0.226,0.031-0.436,0.031-0.668
			V4.805v-20.816C131.356-19.734,127.811-22.67,123.416-22.67z"/>
		<rect x="40" y="-7.519" fill="#3A3A3A" width="77.336" height="2.487"/>
		<rect x="40" y="-1.414" fill="#3A3A3A" width="53.819" height="2.487"/>
		<rect x="40" y="4.918" fill="#3A3A3A" width="53.819" height="2.487"/>
		<rect x="40" y="11.499" fill="#3A3A3A" width="73.265" height="2.487"/>
		<rect x="40" y="17.83" fill="#3A3A3A" width="47.412" height="2.487"/>
		<rect x="40" y="23.708" fill="#3A3A3A" width="62.336" height="2.487"/>
		<rect x="40" y="29.34" fill="#3A3A3A" width="70.882" height="2.487"/>
		<rect x="40" y="34.918" fill="#3A3A3A" width="55.4" height="2.487"/>
		<rect x="40" y="40.581" fill="#3A3A3A" width="68.065" height="2.487"/>
		<rect x="40" y="46.348" fill="#3A3A3A" width="73.265" height="2.487"/>
		<rect x="40" y="52.679" fill="#3A3A3A" width="47.412" height="2.487"/>
		<rect x="40" y="58.559" fill="#3A3A3A" width="62.336" height="2.487"/>
		<rect x="40" y="64.191" fill="#3A3A3A" width="70.882" height="2.487"/>
		<rect x="40" y="69.769" fill="#3A3A3A" width="55.4" height="2.487"/>
		<rect x="40" y="75.432" fill="#3A3A3A" width="68.065" height="2.487"/>
		<rect x="40" y="81.01" fill="#3A3A3A" width="68.065" height="2.487"/>
		<rect x="40" y="87.4" fill="#221F1F" width="68.065" height="2.487"/>
		<path opacity="0.2" fill="#221F1F" enable-background="new    " d="M104.583-21.193l3.094,26.545c0,0-0.458,3.479,3.203,3.7
			c3.661,0.221,20.493-4.133,20.493-4.133L104.583-21.193z"/>
		<path fill="#898989" d="M104.583-22.64V1.218c0,0-0.458,3.479,3.203,3.7c3.661,0.221,23.587,0,23.587,0L104.583-22.64z"/>
		<path fill="#FFD15F" d="M145.108,44.652v69.796c-0.399,5.756-2.154,9.917-4.417,12.919c-5.345,7.096-13.532,7.756-13.532,7.756
			L76.654,85.148L145.108,44.652z"/>
		<path fill="#FFD15F" d="M76.654,85.148l-50.503,49.974c0,0-8.194-0.659-13.539-7.756c-2.263-3.002-4.014-7.165-4.419-12.919
			V44.652L76.654,85.148z"/>
		<path fill="#DDA936" d="M140.689,127.366c-5.345,7.096-13.532,7.756-13.532,7.756H26.152c0,0-8.194-0.659-13.539-7.756
			l64.042-42.218L140.689,127.366z"/>
	</g>
</g>
</svg>
