<?xml version="1.0" encoding="utf-8"?>
<!-- Generator: Adobe Illustrator 17.0.0, SVG Export Plug-In . SVG Version: 6.00 Build 0)  -->
<!DOCTYPE svg PUBLIC "-//W3C//DTD SVG 1.1//EN" "http://www.w3.org/Graphics/SVG/1.1/DTD/svg11.dtd">
<svg version="1.1" xmlns="http://www.w3.org/2000/svg" xmlns:xlink="http://www.w3.org/1999/xlink" x="0px" y="0px"
	 width="138.403px" height="126.869px" viewBox="0 0 138.403 126.869" enable-background="new 0 0 138.403 126.869"
	 xml:space="preserve">
<g id="Layer_2">
</g>
<g id="Layer_1">
	<g>
		<path fill="#84D1C8" d="M59.969,22.653"/>
		<g>
			<ellipse fill="#AAAAAA" cx="67.316" cy="112.179" rx="42.249" ry="7.626"/>
			<g>
				<g>
					<g>
						<polyline fill="#E87A77" points="79.092,108.801 79.092,108.801 77.709,95.772 77.709,95.772 85.717,95.523 85.717,95.523 
							84.669,108.628 						"/>
						<polyline fill="#E87A77" points="37.045,108.473 37.045,108.473 35.543,91.619 35.543,91.619 43.551,91.37 43.551,91.37 
							42.622,108.3 						"/>
					</g>
					<g>
						<polyline fill="#F38D86" points="87.758,112.179 87.758,112.179 85.604,91.879 85.604,91.879 98.08,91.491 98.08,91.491 
							96.446,111.908 						"/>
						<polyline fill="#F38D86" points="45.383,112.179 45.383,112.179 43.228,91.879 43.228,91.879 55.704,91.491 55.704,91.491 
							54.071,111.908 						"/>
					</g>
				</g>
				<g>
					<path fill="#F38D86" d="M113.962,61.113c2.12,22.694-16.72,43.005-42.079,45.371c-25.361,2.367-47.634-14.106-49.752-36.794
						c-2.118-22.694,16.721-43.002,42.081-45.37C89.57,21.952,111.845,38.426,113.962,61.113z"/>
					<path fill="#F38D86" d="M106.427,69.896c-0.09-0.705,0.214-1.453,0.631-2.038c0.427-0.593,0.956-1.091,1.517-1.529
						c0.569-0.429,1.17-0.801,1.788-1.138c0.616-0.343,1.258-0.628,1.911-0.882c0.652-0.256,1.318-0.481,1.995-0.678
						c0.677-0.203,1.372-0.346,2.084-0.46c0.714-0.111,1.443-0.188,2.238-0.175c0.399,0.009,0.815,0.039,1.289,0.144
						c0.26,0.064,0.312,0.061,0.568,0.141c0.223,0.065,0.396,0.123,0.591,0.195c0.758,0.28,1.479,0.643,2.174,1.147
						c0.684,0.512,1.394,1.147,1.852,2.297c0.216,0.574,0.319,1.339,0.128,2.057c-0.185,0.717-0.585,1.289-0.98,1.687
						c-0.389,0.401-0.846,0.689-1.13,0.866c-0.495,0.289-0.934,0.465-1.483,0.602c-0.545,0.126-1.181,0.152-1.804,0.011
						c-0.625-0.136-1.204-0.454-1.649-0.836c-0.898-0.78-1.332-1.739-1.53-2.654c-0.194-0.921-0.185-1.845,0.039-2.744
						c0.204-0.901,0.703-1.769,1.402-2.437l-0.068,0.078c0.759-0.816,1.655-1.412,2.593-1.78c0.468-0.187,0.942-0.33,1.417-0.437
						c0.475-0.105,0.949-0.184,1.425-0.215c0.476-0.028,0.948-0.025,1.415,0.008c0.467,0.034,0.929,0.088,1.38,0.197
						c0.901,0.202,1.775,0.528,2.523,1.029l0.017,0.012c0.047,0.032,0.06,0.095,0.028,0.142c-0.027,0.04-0.078,0.055-0.122,0.039
						c-0.796-0.302-1.644-0.459-2.494-0.508c-0.851-0.047-1.708,0.012-2.543,0.177c-0.834,0.162-1.651,0.425-2.402,0.813
						c-0.75,0.387-1.437,0.903-1.961,1.555l-0.003,0.004l-0.005,0.006c-0.423,0.468-0.71,1.056-0.83,1.682
						c-0.129,0.623-0.102,1.279,0.056,1.894c0.161,0.612,0.474,1.193,0.946,1.583c0.469,0.397,1.105,0.525,1.703,0.375
						c0.297-0.076,0.591-0.202,0.857-0.354c0.284-0.171,0.548-0.339,0.765-0.559c0.218-0.216,0.384-0.472,0.46-0.751
						c0.08-0.279,0.048-0.58-0.048-0.865c-0.21-0.572-0.659-1.063-1.156-1.464c-0.503-0.403-1.073-0.729-1.671-0.983
						c-0.299-0.127-0.604-0.23-0.92-0.319c-0.304-0.083-0.627-0.127-0.95-0.151c-0.649-0.047-1.308-0.019-1.963,0.044
						c-1.311,0.13-2.611,0.4-3.877,0.774c-1.262,0.382-2.506,0.854-3.638,1.524c-0.562,0.337-1.1,0.723-1.543,1.198
						c-0.439,0.472-0.782,1.05-0.817,1.698c-0.003,0.056-0.051,0.1-0.107,0.097c-0.05-0.003-0.09-0.041-0.096-0.089L106.427,69.896z
						"/>
					<path fill="#D1625A" d="M55.389,30.335c0,0,12.358-4.356,27.255-0.208l-0.23,3.556c0,0-12.11-4.044-26.913,0.256L55.389,30.335
						z"/>
				</g>
				<g>
					<g>
						<path fill="#F38D86" d="M28.667,46.878c0,0-5.428-13.621-1.745-14.854c3.683-1.233,11.172,3.503,11.172,3.503"/>
						<path fill="#D1625A" d="M50.611,50.156c0,0-5.216-11.951-2.831-13.143c2.385-1.192,10.496,1.932,14.093,3.766
							C61.873,40.779,52.659,44.129,50.611,50.156z"/>
					</g>
					<g>
						<path fill="#333333" d="M33.001,57.181c0.03,0.967-0.73,1.775-1.696,1.805l0,0c-0.966,0.03-1.774-0.729-1.804-1.696
							l-0.109-3.5c-0.03-0.966,0.729-1.774,1.695-1.804l0,0c0.966-0.03,1.775,0.729,1.805,1.696L33.001,57.181z"/>
						<path fill="#333333" d="M44.845,60.991c0.03,0.967-0.729,1.775-1.695,1.805l0,0c-0.966,0.03-1.775-0.729-1.804-1.696
							L41.237,57.6c-0.03-0.966,0.729-1.775,1.695-1.805l0,0c0.966-0.03,1.774,0.73,1.804,1.696L44.845,60.991z"/>
					</g>
					<g>
						<path fill="#D1625A" d="M42.822,73.368c0.187,6.016-1.85,10.962-11.806,12.026c-5.261,0.562-6.995-3.091-7.182-9.108
							c-0.187-6.017-9.376-13.369,4.273-13.794C37.824,62.19,42.635,67.352,42.822,73.368z"/>
						
							<ellipse transform="matrix(0.9995 -0.0311 0.0311 0.9995 -2.3054 0.8639)" fill="#F38D86" cx="26.587" cy="74.459" rx="11.058" ry="11.916"/>
						<g>
							<circle fill="#D1625A" cx="22.67" cy="73.658" r="1.739"/>
							<circle fill="#D1625A" cx="29.375" cy="75.298" r="1.739"/>
						</g>
					</g>
				</g>
			</g>
		</g>
		<g>
			<g>
				<g>
					<g>
						<g opacity="0.15">
							<circle fill="#93471C" cx="69.33" cy="25.641" r="10.714"/>
							<circle fill="#93471C" cx="70.828" cy="24.862" r="10.715"/>
						</g>
						<g>
							<g>
								<circle fill="#E08947" cx="69.33" cy="23.983" r="10.714"/>
								<circle fill="#FCD682" cx="70.828" cy="23.204" r="10.715"/>
							</g>
						</g>
					</g>
					<g>
						<g opacity="0.08">
							<path d="M67.605,25.831l2.748,0.049l-0.008,0.456c-0.008,0.485,0.018,0.803,0.079,0.954c0.061,0.151,0.195,0.228,0.404,0.232
								c0.168,0.003,0.295-0.06,0.381-0.187c0.086-0.128,0.132-0.321,0.136-0.579c0.008-0.431-0.073-0.734-0.243-0.909
								c-0.164-0.175-0.653-0.519-1.464-1.033c-0.691-0.434-1.161-0.765-1.411-0.994c-0.25-0.229-0.459-0.55-0.626-0.963
								c-0.167-0.414-0.245-0.927-0.235-1.538c0.018-0.98,0.267-1.744,0.748-2.293c0.482-0.55,1.195-0.882,2.14-0.997l0.018-1.033
								l1.265,0.022l-0.019,1.068c0.733,0.085,1.37,0.379,1.91,0.88c0.54,0.501,0.799,1.364,0.778,2.589l-0.009,0.537l-2.748-0.048
								l0.012-0.674c0.013-0.739-0.007-1.199-0.061-1.378c-0.053-0.181-0.189-0.272-0.406-0.276
								c-0.186-0.003-0.325,0.057-0.418,0.179c-0.093,0.123-0.141,0.307-0.146,0.553c-0.011,0.616,0.025,1.058,0.106,1.325
								c0.082,0.267,0.371,0.561,0.869,0.882c0.829,0.541,1.392,0.937,1.69,1.19c0.297,0.253,0.551,0.605,0.763,1.058
								c0.213,0.453,0.313,0.963,0.303,1.529c-0.015,0.82-0.258,1.46-0.731,1.919c-0.473,0.459-1.175,0.735-2.106,0.827
								l-0.015,0.877l-1.265-0.022l0.016-0.877c-0.846-0.124-1.475-0.42-1.889-0.888c-0.414-0.468-0.613-1.107-0.599-1.919
								C67.57,26.234,67.582,26.062,67.605,25.831z"/>
						</g>
						<g>
							<g>
								<path fill="#E49551" d="M67.605,25.417l2.748,0.049l-0.008,0.456c-0.008,0.485,0.018,0.803,0.079,0.954
									c0.061,0.151,0.195,0.228,0.404,0.232c0.168,0.003,0.295-0.06,0.381-0.187c0.086-0.128,0.132-0.321,0.136-0.579
									c0.008-0.431-0.073-0.734-0.243-0.909c-0.164-0.175-0.653-0.519-1.464-1.033c-0.691-0.434-1.161-0.765-1.411-0.994
									c-0.25-0.229-0.459-0.55-0.626-0.963c-0.167-0.414-0.245-0.927-0.235-1.538c0.018-0.98,0.267-1.744,0.748-2.293
									c0.482-0.55,1.195-0.882,2.14-0.997l0.018-1.033l1.265,0.022l-0.019,1.068c0.733,0.085,1.37,0.379,1.91,0.88
									c0.54,0.501,0.799,1.364,0.778,2.589l-0.009,0.537l-2.748-0.048l0.012-0.674c0.013-0.739-0.007-1.199-0.061-1.378
									c-0.053-0.181-0.189-0.272-0.406-0.276c-0.186-0.003-0.325,0.057-0.418,0.179c-0.093,0.123-0.141,0.307-0.146,0.553
									c-0.011,0.616,0.025,1.058,0.106,1.325c0.082,0.267,0.371,0.561,0.869,0.882c0.829,0.541,1.392,0.937,1.69,1.19
									c0.297,0.253,0.551,0.605,0.763,1.058c0.213,0.453,0.313,0.963,0.303,1.529c-0.015,0.82-0.258,1.46-0.731,1.919
									c-0.473,0.459-1.175,0.735-2.106,0.827l-0.015,0.877l-1.265-0.022l0.016-0.877c-0.846-0.124-1.475-0.42-1.889-0.888
									c-0.414-0.468-0.613-1.107-0.599-1.919C67.57,25.82,67.582,25.648,67.605,25.417z"/>
							</g>
						</g>
					</g>
				</g>
			</g>
			<path fill="#F38D86" d="M55.502,34.326c0,0,11.95-4.986,26.913-0.308l0.179,6.251"/>
		</g>
	</g>
</g>
</svg>
