<?xml version="1.0" encoding="utf-8"?>
<!-- Generator: Adobe Illustrator 17.0.0, SVG Export Plug-In . SVG Version: 6.00 Build 0)  -->
<!DOCTYPE svg PUBLIC "-//W3C//DTD SVG 1.1//EN" "http://www.w3.org/Graphics/SVG/1.1/DTD/svg11.dtd">
<svg version="1.1" xmlns="http://www.w3.org/2000/svg" xmlns:xlink="http://www.w3.org/1999/xlink" x="0px" y="0px"
	 width="138.403px" height="134.558px" viewBox="0 0 138.403 134.558" enable-background="new 0 0 138.403 134.558"
	 xml:space="preserve">
<g id="Layer_2">
</g>
<g id="Layer_1">
	<g>
		<g>
			<circle fill="#FCC05E" cx="88.813" cy="93.666" r="31.655"/>
			<g>
				<path fill="#FFFFFF" d="M90.97,98.158v3.851c0,1.659-1.244,2.903-2.903,2.903c-1.54,0-2.903-1.244-2.903-2.903v-6.162
					c0-0.059,0.06-0.059,0.06-0.118c-0.06-0.059-0.06-0.059-0.06-0.118c0-1.54,1.363-2.903,2.903-2.903
					c3.732,0,6.754-2.962,6.754-6.636c0-3.733-3.022-6.636-6.754-6.636c-2.429,0-4.562,1.303-5.688,3.259
					c-0.829,1.422-2.607,1.896-4.029,1.066c-1.362-0.829-1.836-2.548-1.007-3.97c2.133-3.673,6.162-6.162,10.724-6.162
					c6.873,0,12.501,5.569,12.501,12.442C100.568,91.937,96.48,96.854,90.97,98.158z M90.97,111.133v1.066
					c0,1.659-1.244,2.903-2.903,2.903c-1.54,0-2.903-1.244-2.903-2.903v-1.066c0-1.6,1.363-2.903,2.903-2.903
					C89.726,108.23,90.97,109.533,90.97,111.133z"/>
			</g>
		</g>
		<g>
			<circle fill="#F7D097" cx="79.49" cy="36.531" r="22.333"/>
			<g>
				<path fill="#FFFFFF" d="M81.116,39.699v2.717c0,1.171-0.878,2.049-2.048,2.049c-1.087,0-2.049-0.878-2.049-2.049v-4.347
					c0-0.042,0.042-0.042,0.042-0.084c-0.042-0.042-0.042-0.042-0.042-0.084c0-1.087,0.961-2.048,2.049-2.048
					c2.633,0,4.765-2.09,4.765-4.682c0-2.634-2.132-4.682-4.765-4.682c-1.714,0-3.219,0.919-4.013,2.299
					c-0.586,1.003-1.84,1.338-2.843,0.753c-0.961-0.586-1.296-1.798-0.711-2.801c1.505-2.592,4.348-4.347,7.567-4.347
					c4.849,0,8.82,3.929,8.82,8.779C87.888,35.31,85.004,38.779,81.116,39.699z M81.116,48.854v0.753
					c0,1.17-0.878,2.048-2.048,2.048c-1.087,0-2.049-0.878-2.049-2.048v-0.753c0-1.129,0.961-2.049,2.049-2.049
					C80.238,46.805,81.116,47.725,81.116,48.854z"/>
			</g>
		</g>
		<g>
			<circle fill="#F9B653" cx="38.64" cy="62.39" r="24.055"/>
			<g>
				<path fill="#FFFFFF" d="M40.256,65.803v2.926c0,1.261-0.945,2.206-2.206,2.206c-1.171,0-2.206-0.945-2.206-2.206v-4.682
					c0-0.045,0.045-0.045,0.045-0.09c-0.045-0.045-0.045-0.045-0.045-0.09c0-1.17,1.036-2.206,2.206-2.206
					c2.837,0,5.132-2.251,5.132-5.042c0-2.837-2.296-5.042-5.132-5.042c-1.846,0-3.467,0.99-4.322,2.476
					c-0.63,1.08-1.981,1.44-3.061,0.81c-1.036-0.63-1.396-1.936-0.765-3.016c1.621-2.792,4.682-4.682,8.149-4.682
					c5.223,0,9.5,4.232,9.5,9.455C47.55,61.076,44.443,64.813,40.256,65.803z M40.256,75.663v0.811c0,1.26-0.945,2.206-2.206,2.206
					c-1.171,0-2.206-0.946-2.206-2.206v-0.811c0-1.215,1.036-2.206,2.206-2.206C39.311,73.457,40.256,74.448,40.256,75.663z"/>
			</g>
		</g>
	</g>
</g>
</svg>
