<?xml version="1.0" encoding="utf-8"?>
<!-- Generator: Adobe Illustrator 17.0.0, SVG Export Plug-In . SVG Version: 6.00 Build 0)  -->
<!DOCTYPE svg PUBLIC "-//W3C//DTD SVG 1.1//EN" "http://www.w3.org/Graphics/SVG/1.1/DTD/svg11.dtd">
<svg version="1.1" id="Capa_1" xmlns="http://www.w3.org/2000/svg" xmlns:xlink="http://www.w3.org/1999/xlink" x="0px" y="0px"
	 width="258px" height="212px" viewBox="0 0 258 212" enable-background="new 0 0 258 212" xml:space="preserve">
<g id="Layer_2">
</g>
<g id="Layer_1">
	<g>
		<g>
			<g>
				<rect x="100.991" y="42.796" fill="#FE526C" width="117.026" height="123.08"/>
				<path fill="#052F45" d="M159.504,25.238c7.991,0,15.225,3.239,20.465,8.473c5.236,5.237,8.473,12.474,8.473,20.465h-3.165
					c0-7.117-2.886-13.561-7.549-18.226c-4.665-4.663-11.108-7.549-18.226-7.549c-7.118,0-13.563,2.886-18.226,7.549
					c-4.665,4.665-7.549,11.108-7.549,18.226h-3.165c0-7.991,3.239-15.227,8.475-20.465
					C144.278,28.477,151.513,25.238,159.504,25.238z"/>
				<g>
					<path fill="#052F45" d="M132.495,60.003c1.952,0,3.542-1.59,3.542-3.54c0-1.948-1.589-3.54-3.542-3.54
						c-1.948,0-3.537,1.59-3.537,3.54C128.958,58.413,130.545,60.003,132.495,60.003z"/>
					<path fill="#052F45" d="M186.514,60.003c1.947,0,3.537-1.59,3.537-3.54c0-1.948-1.59-3.54-3.537-3.54
						c-1.948,0-3.542,1.59-3.542,3.54C182.974,58.413,184.566,60.003,186.514,60.003z"/>
				</g>
			</g>
		</g>
		<g>
			<g>
				<path fill="#60C1AE" d="M105.165,114.792c2.494-2.344,5.847-7.974,9.53-14.152c3.802-6.396,7.942-13.342,12.136-18.416
					c4.6-5.568,9.516-8.129,13.536-8.366c2.117-0.126,4.041,0.365,5.646,1.393c1.651,1.056,2.891,2.62,3.59,4.603
					c1.213,3.443,0.748,8.285-2.272,13.816c-3.386,6.195-8.754,11.461-14.901,15.783c-7.42,5.206-16.046,9.081-23.619,11.522
					l-15.573,5.023L105.165,114.792L105.165,114.792z M121.004,104.385L121.004,104.385c-1.019,1.714-2.018,3.387-2.988,4.979
					c3.494-1.697,6.961-3.679,10.177-5.934c5.317-3.737,9.902-8.184,12.679-13.28c1.926-3.52,2.36-6.212,1.78-7.848
					c-0.144-0.41-0.346-0.702-0.593-0.856c-0.292-0.187-0.72-0.271-1.267-0.238c-2.16,0.126-5.107,1.868-8.283,5.715
					C128.551,91.706,124.621,98.313,121.004,104.385z"/>
				<path fill="#60C1AE" d="M105.165,114.792c-2.492-2.344-5.847-7.974-9.528-14.152c-3.807-6.396-7.945-13.342-12.139-18.416
					c-4.598-5.569-9.515-8.129-13.529-8.366c-2.122-0.126-4.046,0.365-5.651,1.393c-1.653,1.056-2.893,2.62-3.591,4.603
					c-1.213,3.443-0.75,8.285,2.272,13.816c3.382,6.195,8.751,11.461,14.901,15.783c7.423,5.206,16.05,9.081,23.62,11.522
					l15.574,5.023L105.165,114.792L105.165,114.792z M89.326,104.385L89.326,104.385c1.019,1.714,2.02,3.387,2.99,4.979
					c-3.494-1.697-6.963-3.679-10.179-5.934c-5.314-3.738-9.9-8.184-12.681-13.28c-1.923-3.52-2.356-6.212-1.78-7.848
					c0.146-0.41,0.35-0.702,0.593-0.856c0.29-0.187,0.724-0.271,1.27-0.238c2.159,0.126,5.103,1.868,8.285,5.715
					C81.775,91.706,85.708,98.313,89.326,104.385z"/>
			</g>
			<rect x="43.178" y="132.112" fill="#FFBA00" width="123.973" height="45.393"/>
			<rect x="37.017" y="114.792" fill="#FFBA00" width="136.296" height="17.32"/>
			<rect x="105.164" y="132.12" fill="#FFBA00" width="61.988" height="45.388"/>
			<polygon fill="#FFBA00" points="43.178,132.12 105.165,132.12 105.165,114.792 37.017,114.792 37.017,132.12 			"/>
			<rect x="97.111" y="114.792" fill="#60C1AE" width="16.107" height="62.714"/>
			<path fill="#60C1AE" d="M100.894,100.278h8.537c2.081,0,3.786,1.704,3.786,3.781v6.946c0,2.082-1.706,3.785-3.786,3.785h-8.537
				c-2.082,0-3.783-1.702-3.783-3.785v-6.946C97.111,101.982,98.812,100.278,100.894,100.278z"/>
		</g>
	</g>
</g>
</svg>
